<?xml version="1.0" encoding="UTF-8" standalone="no"?>
<!-- Created with Inkscape (http://www.inkscape.org/) -->

<svg
   xmlns:dc="http://purl.org/dc/elements/1.1/"
   xmlns:cc="http://creativecommons.org/ns#"
   xmlns:rdf="http://www.w3.org/1999/02/22-rdf-syntax-ns#"
   xmlns:svg="http://www.w3.org/2000/svg"
   xmlns="http://www.w3.org/2000/svg"
   xmlns:sodipodi="http://sodipodi.sourceforge.net/DTD/sodipodi-0.dtd"
   xmlns:inkscape="http://www.inkscape.org/namespaces/inkscape"
   width="500"
   height="500"
   id="svg3173"
   version="1.1"
   inkscape:version="0.48.5 r10040"
   sodipodi:docname="sixteenth note.svg"
   inkscape:export-filename="C:\Users\ema\Desktop\sixteenth note.png"
   inkscape:export-xdpi="90"
   inkscape:export-ydpi="90">
  <defs
     id="defs3175" />
  <sodipodi:namedview
     id="base"
     pagecolor="#ffffff"
     bordercolor="#666666"
     borderopacity="1.0"
     inkscape:pageopacity="0.0"
     inkscape:pageshadow="2"
     inkscape:zoom="0.77472527"
     inkscape:cx="320"
     inkscape:cy="240"
     inkscape:current-layer="layer1"
     inkscape:document-units="px"
     showgrid="false"
     inkscape:window-width="1102"
     inkscape:window-height="765"
     inkscape:window-x="1821"
     inkscape:window-y="180"
     inkscape:window-maximized="0" />
  <metadata
     id="metadata3178">
    <rdf:RDF>
      <cc:Work
         rdf:about="">
        <dc:format>image/svg+xml</dc:format>
        <dc:type
           rdf:resource="http://purl.org/dc/dcmitype/StillImage" />
        <dc:title></dc:title>
      </cc:Work>
    </rdf:RDF>
  </metadata>
  <g
     id="layer1"
     inkscape:label="Layer 1"
     inkscape:groupmode="layer"
     transform="translate(0,20)">
    <g
       id="g3225"
       style="fill:#000000"
       transform="matrix(7.5131483,0,0,7.5131483,1960.6941,-1815.6424)">
      <path
         transform="matrix(1.841822,-1.1882988,0.83180924,1.2892755,-362.02093,341.13519)"
         d="m 65,20.900009 c 0,2.761424 -2.238576,5 -5,5 -2.761424,0 -5,-2.238576 -5,-5 0,-2.761424 2.238576,-5 5,-5 2.761424,0 5,2.238576 5,5 z"
         sodipodi:ry="5"
         sodipodi:rx="5"
         sodipodi:cy="20.900009"
         sodipodi:cx="60"
         id="path3124"
         style="fill:#000000;fill-opacity:1;stroke:none"
         sodipodi:type="arc" />
      <path
         style="fill:#000000;stroke:none"
         d="m -225.05808,254.13951 c 1.55218,5.26623 3.32425,10.94311 5.68883,14.45703 9.72834,14.45703 8.54807,19.15041 2.85895,26.50456 5.38053,-15.19373 -2.92617,-20.11505 -8.54778,-25.34575 z"
         id="path3128"
         inkscape:connector-curvature="0"
         sodipodi:nodetypes="csccc" />
      <path
         sodipodi:nodetypes="csccc"
         inkscape:connector-curvature="0"
         id="path3130"
         d="m -225.14627,240.17801 c 1.55218,4.83861 3.32425,10.05451 5.68884,13.2831 9.72833,13.28312 10.38367,20.50658 4.69455,27.26356 5.38053,-13.95999 -4.76178,-21.39288 -10.38339,-26.19884 z"
         style="fill:#000000;stroke:none" />
      <rect
         ry="1"
         y="239"
         x="-226"
         height="56"
         width="2"
         id="rect3196"
         style="fill:#000000;fill-opacity:1;stroke:none" />
    </g>
  </g>
</svg>
